<?xml version="1.0" encoding="utf-8"?>
<!DOCTYPE svg PUBLIC "-//W3C//DTD SVG 1.1//EN" "http://www.w3.org/Graphics/SVG/1.1/DTD/svg11.dtd">
<svg version="1.1" id="Layer_1" xmlns="http://www.w3.org/2000/svg" xmlns:xlink="http://www.w3.org/1999/xlink" x="0px" y="0px"
	 width="65px" height="30.5px" fill="#0f304f" viewBox="33.865 9.76 65 30.5" enable-background="new 33.865 9.76 65 30.5" xml:space="preserve">
<title>akademia</title>
<path d="M82.771,28.062h-3.397c-0.218,0-0.374-0.132-0.374-0.326v-7.367c0-1.117-0.459-1.446-1.228-1.446
	c-0.454,0.009-0.908,0.046-1.358,0.108v8.703c0,0.196-0.154,0.327-0.373,0.327h-3.396c-0.219,0-0.372-0.132-0.372-0.327v-9.775
	c0-0.789,0.763-0.981,2.146-1.293c1.306-0.267,2.635-0.398,3.968-0.395c2.851,0,4.735,0.592,4.735,3.508v7.959
	c0.007,0.174-0.128,0.321-0.304,0.328c-0.016,0.001-0.031,0-0.046-0.001"/>
<path d="M54.421,28.062h-3.399c-0.218,0-0.372-0.132-0.372-0.326v-7.367c0-1.117-0.593-1.446-1.36-1.446
	c-0.462,0.01-0.923,0.046-1.38,0.108v8.703c0,0.196-0.154,0.327-0.372,0.327h-3.354c-0.218,0-0.373-0.132-0.373-0.327v-7.365
	c0-1.117-0.481-1.446-1.25-1.446c-0.525,0-1.316,0.087-1.49,0.108v8.703c0,0.196-0.154,0.327-0.372,0.327H37.3
	c-0.218,0-0.373-0.132-0.373-0.327v-9.775c0-0.789,0.763-0.981,2.148-1.293c1.073-0.242,2.653-0.395,4.034-0.395
	c1.381,0,2.324,0.327,2.937,0.702c1.275-0.452,2.616-0.689,3.969-0.702c2.849,0,4.777,0.592,4.777,3.508v7.959
	c0,0.196-0.152,0.327-0.371,0.327"/>
<path d="M61.521,11.044c-2.532,0.268-3.5,1.25-3.598,3.815c-0.015,0.353-0.025,0.705-0.032,1.058c0,0.199-0.006,0.41-0.011,0.627
	h-0.012v0.012l-2.071,2.872h2.071v8.308c0,0.194,0.199,0.326,0.396,0.326h3.396c0.18,0.014,0.337-0.122,0.35-0.302
	c0-0.008,0.001-0.017,0.001-0.024v-8.308l2.101-2.872h-2.105v-0.012H62c0-0.17,0-0.722,0-0.757c0.012-1.563,0.218-1.904,1.809-1.921
	c1.125-0.01,1.417-0.012,1.777-0.01l2.098-2.901c-0.685,0-4.906-0.043-6.162,0.091"/>
<path d="M69.25,16.554h-3.03l-2.088,2.87h1.369v8.31c0,0.195,0.154,0.327,0.373,0.327h3.38c0.218,0,0.37-0.132,0.37-0.327V16.883
	c0-0.198-0.152-0.327-0.37-0.327"/>
<path d="M96.195,14.064v-1.867c0-0.197-0.154-0.327-0.373-0.327h-3.281c-0.219,0-0.371,0.132-0.371,0.327v4.143
	c-1.359-0.106-2.727-0.087-4.083,0.059c-1.765,0.196-2.661,1.288-2.679,3.067c-0.006,0.465-0.011,0.818-0.013,1.106
	c0,0.026-0.009,0.046-0.009,0.075c0,0.327,0,0.598,0.006,0.831v1.612c0,0.233,0,0.506-0.006,0.83c0,0.029,0.006,0.048,0.009,0.076
	c0,0.289,0.007,0.643,0.013,1.107c0.018,1.779,0.914,2.869,2.679,3.065c1.371,0.146,2.753,0.165,4.128,0.056
	c1.484-0.109,2.139-0.293,3.09-0.602c0.584-0.189,0.812-0.405,0.873-0.873v-0.005c0.006-0.055,0.009-0.109,0.013-0.194
	c0.005-0.085,0.007-0.183,0.007-0.183s0-0.471,0-0.475c0-0.115,0-11.841,0-11.841 M92.062,19.582v6.013
	c-0.212,0.029-0.37,0.062-0.528,0.075c-1.751,0.124-2.019-0.109-2.03-1.799c0-0.018,0-0.029,0-0.046
	c0-0.593-0.005-0.922-0.008-1.138c0-0.197,0-0.307,0-0.407c0-0.1,0-0.21,0-0.406c0-0.218,0-0.545,0.008-1.136
	c0-0.019,0-0.031,0-0.049c0.012-1.693,0.279-1.922,2.03-1.796c0.158,0.011,0.316,0.044,0.528,0.075V19.582z"/>
<path d="M42.5,38.921h-1.028c-0.1,0.005-0.198-0.023-0.279-0.081c-0.071-0.054-0.126-0.124-0.161-0.206l-0.338-0.996h-2.173
	l-0.338,0.996c-0.033,0.079-0.086,0.147-0.155,0.198c-0.08,0.061-0.177,0.092-0.277,0.089h-1.036l2.213-5.719h1.358L42.5,38.921z
	 M40.394,36.735l-0.524-1.567c-0.04-0.1-0.081-0.217-0.125-0.352c-0.044-0.134-0.089-0.279-0.133-0.436
	c-0.039,0.16-0.081,0.308-0.125,0.443c-0.044,0.136-0.086,0.254-0.125,0.354l-0.525,1.558H40.394z"/>
<path d="M44.562,35.517h0.212c0.164,0.016,0.324-0.054,0.424-0.184l1.287-1.869c0.063-0.089,0.147-0.159,0.246-0.206
	c0.104-0.041,0.215-0.06,0.327-0.057h1.153l-1.693,2.312c-0.101,0.143-0.234,0.261-0.388,0.346c0.098,0.035,0.189,0.087,0.27,0.152
	c0.088,0.073,0.165,0.159,0.228,0.255l1.725,2.655h-1.181c-0.065,0.001-0.13-0.005-0.194-0.016c-0.049-0.009-0.096-0.024-0.14-0.047
	c-0.038-0.02-0.073-0.046-0.103-0.076c-0.031-0.034-0.059-0.07-0.083-0.109l-1.299-1.987c-0.042-0.068-0.105-0.123-0.179-0.154
	c-0.094-0.034-0.193-0.049-0.292-0.045h-0.327v2.435h-1.321v-5.72h1.327V35.517z"/>
<path d="M54.739,38.921h-1.024c-0.1,0.005-0.198-0.023-0.279-0.081c-0.071-0.054-0.126-0.124-0.161-0.206l-0.338-0.996H50.76
	l-0.338,0.996c-0.033,0.079-0.086,0.147-0.155,0.198c-0.08,0.061-0.177,0.092-0.277,0.089h-1.036l2.213-5.719h1.358L54.739,38.921z
	 M52.632,36.735l-0.53-1.565c-0.039-0.1-0.081-0.217-0.125-0.351c-0.044-0.135-0.089-0.28-0.133-0.437
	c-0.039,0.16-0.081,0.308-0.125,0.444c-0.044,0.136-0.086,0.253-0.125,0.353l-0.526,1.559L52.632,36.735z"/>
<path d="M60.771,36.058c0.003,0.392-0.071,0.78-0.218,1.144c-0.137,0.341-0.342,0.649-0.603,0.907
	c-0.268,0.261-0.587,0.464-0.937,0.597c-0.388,0.147-0.799,0.222-1.214,0.218h-2.216v-5.722h2.222
	c0.415-0.005,0.827,0.069,1.214,0.218c0.349,0.134,0.668,0.337,0.937,0.597c0.261,0.257,0.467,0.565,0.603,0.905
	C60.703,35.282,60.775,35.668,60.771,36.058z M59.413,36.058c0.003-0.259-0.033-0.516-0.109-0.763
	c-0.065-0.213-0.172-0.41-0.316-0.579c-0.138-0.159-0.311-0.284-0.505-0.365c-0.215-0.089-0.447-0.132-0.679-0.128h-0.888v3.678
	h0.888c0.232,0.004,0.464-0.04,0.679-0.128c0.194-0.081,0.367-0.206,0.505-0.365c0.144-0.169,0.251-0.366,0.316-0.579
	c0.077-0.249,0.114-0.51,0.11-0.771H59.413z"/>
<path d="M63.065,34.222v1.334h1.798v0.981h-1.798V37.9h2.347v1.021h-3.682v-5.72h3.682v1.021H63.065z"/>
<path d="M73.051,33.201v5.72h-1.17V35.63c0-0.072,0.002-0.154,0.006-0.247s0.011-0.183,0.021-0.271l-1.519,2.943
	c-0.042,0.087-0.108,0.159-0.19,0.209c-0.083,0.048-0.178,0.072-0.273,0.07H69.74c-0.095,0.002-0.189-0.022-0.271-0.07
	c-0.082-0.053-0.146-0.128-0.186-0.216l-1.52-2.944c0.009,0.095,0.016,0.188,0.021,0.277s0.007,0.173,0.007,0.25v3.289h-1.169v-5.72
	h1.013c0.057,0,0.107,0,0.151,0c0.04,0.002,0.079,0.011,0.116,0.024c0.034,0.014,0.066,0.034,0.092,0.061
	c0.033,0.034,0.06,0.073,0.081,0.116l1.472,2.899c0.053,0.1,0.103,0.203,0.151,0.31c0.049,0.107,0.095,0.216,0.14,0.327
	c0.045-0.115,0.091-0.228,0.14-0.338s0.101-0.215,0.155-0.314l1.461-2.881c0.021-0.042,0.049-0.081,0.081-0.115
	c0.026-0.027,0.058-0.048,0.093-0.062c0.037-0.014,0.076-0.021,0.115-0.024c0.043,0,0.094,0,0.152,0L73.051,33.201z"/>
<path d="M75.885,38.921H74.55v-5.72h1.335V38.921z"/>
<path d="M82.513,38.921h-1.028c-0.1,0.005-0.197-0.024-0.279-0.081c-0.07-0.054-0.126-0.124-0.16-0.206l-0.339-0.996h-2.173
	l-0.338,0.996c-0.033,0.079-0.086,0.147-0.154,0.198c-0.08,0.061-0.178,0.092-0.277,0.089h-1.035l2.213-5.719H80.3L82.513,38.921z
	 M80.405,36.735l-0.525-1.567c-0.039-0.1-0.081-0.217-0.126-0.352c-0.044-0.134-0.088-0.279-0.133-0.436
	c-0.039,0.16-0.08,0.308-0.125,0.443s-0.086,0.254-0.125,0.354l-0.525,1.558H80.405z"/>
</svg>
