<?xml version="1.0" encoding="utf-8"?>
<!-- Generator: Adobe Illustrator 16.0.0, SVG Export Plug-In . SVG Version: 6.00 Build 0)  -->
<!DOCTYPE svg PUBLIC "-//W3C//DTD SVG 1.1//EN" "https://www.w3.org/Graphics/SVG/1.1/DTD/svg11.dtd">
<svg version="1.1" id="Layer_1" xmlns="https://www.w3.org/2000/svg" xmlns:xlink="https://www.w3.org/1999/xlink" x="0px" y="0px"
	 width="100px" height="29px" viewBox="0 0 100 29" enable-background="new 0 0 100 29" xml:space="preserve">
<g>
	<g>
		<path fill="#66AC44" d="M69.949,8.892c-2.33,0-4.881,0.256-6.694,0.66c-2.331,0.514-3.621,0.843-3.621,2.162v16.34
			c0,0.328,0.257,0.549,0.628,0.549h5.73c0.369,0,0.629-0.221,0.629-0.549V13.508c0.258-0.037,1.406-0.183,2.293-0.183
			c1.296,0,2.07,0.549,2.07,2.418v12.309c0,0.328,0.262,0.549,0.631,0.549h5.732c0.369,0,0.591-0.221,0.591-0.549V14.755
			C77.938,9.881,74.759,8.892,69.949,8.892z M22.082,8.892c-3.292,0-6.105,0.953-6.697,1.173c-1.033-0.623-2.624-1.173-4.955-1.173
			c-2.33,0-4.995,0.256-6.805,0.66C1.292,10.065,0,10.394,0,11.713v16.34c0,0.328,0.258,0.549,0.629,0.549h5.733
			c0.368,0,0.627-0.221,0.627-0.549V13.508c0.295-0.037,1.627-0.183,2.515-0.183c1.296,0,2.108,0.549,2.108,2.418v12.309
			c0,0.328,0.26,0.549,0.629,0.549h5.66c0.369,0,0.627-0.221,0.627-0.549V13.508c0.26-0.037,1.443-0.183,2.329-0.183
			c1.295,0,2.296,0.549,2.296,2.418v12.309c0,0.328,0.259,0.549,0.627,0.549h5.735c0.368,0,0.625-0.221,0.625-0.549V14.755
			C30.142,9.881,26.888,8.892,22.082,8.892z M42.314,9.348H42.3c0-0.284,0-1.206,0.001-1.264c0.02-2.614,0.377-3.184,3.051-3.212
			c1.897-0.017,2.384-0.02,2.999-0.016l3.54-4.849c-1.155,0.007-8.279-0.072-10.396,0.151c-4.274,0.449-5.905,2.09-6.079,6.374
			c-0.024,0.589-0.042,1.179-0.053,1.767c-0.007,0.333-0.011,0.686-0.018,1.048h-0.021v0.02l-3.499,4.8h3.499v13.884
			c0,0.328,0.334,0.549,0.668,0.549h5.729c0.334,0,0.593-0.221,0.593-0.549V14.168l3.544-4.8h-3.544V9.348z M54.536,9.368h-5.115
			l-3.522,4.798h2.31v13.887c0,0.328,0.258,0.549,0.629,0.549h5.697c0.367,0,0.626-0.221,0.626-0.549V9.917
			C55.162,9.586,54.903,9.368,54.536,9.368z M99.996,5.198V2.085c0-0.329-0.259-0.55-0.629-0.55h-5.535
			c-0.369,0-0.627,0.221-0.627,0.55v6.927c-2.285-0.17-4.611-0.153-6.888,0.098c-2.978,0.328-4.491,2.151-4.521,5.125
			c-0.011,0.778-0.019,1.37-0.021,1.85c-0.004,0.043-0.015,0.076-0.015,0.127c0.007,0.543,0.007,0.998,0.01,1.387v2.695
			c-0.003,0.391-0.003,0.846-0.01,1.389c0,0.051,0.011,0.08,0.015,0.127c0.003,0.482,0.011,1.072,0.021,1.85
			c0.029,2.973,1.543,4.793,4.521,5.123c2.3,0.254,4.654,0.268,6.965,0.094c2.505-0.189,3.609-0.492,5.215-1.006
			c0.983-0.314,1.37-0.678,1.466-1.451v-0.01c0.01-0.092,0.015-0.182,0.022-0.324c0.009-0.143,0.011-0.305,0.011-0.305
			S100,24.994,100,24.988C100,24.793,99.996,5.198,99.996,5.198z M93.02,24.486c-0.356,0.051-0.623,0.104-0.891,0.127
			c-2.953,0.207-3.404-0.176-3.424-3.008c0-0.029,0.007-0.049,0.007-0.076c-0.007-0.992-0.011-1.541-0.013-1.902
			c-0.001-0.33-0.001-0.512-0.001-0.68c0-0.17,0-0.35,0.001-0.68c0.002-0.361,0.006-0.91,0.013-1.898
			c0-0.031-0.007-0.051-0.007-0.08c0.02-2.832,0.471-3.213,3.424-3.004c0.268,0.019,0.534,0.075,0.891,0.125V24.486z"/>
	</g>
</g>
</svg>
